<?xml version="1.0" encoding="UTF-8"?>
<svg version="1.1" xmlns="http://www.w3.org/2000/svg" width="292" height="279">
<path d="M0 0 C1.16796875 2.3984375 1.16796875 2.3984375 2.1875 5.375 C2.53167969 6.35210937 2.87585938 7.32921875 3.23046875 8.3359375 C4 11 4 11 4 14 C4.76957031 13.70996094 4.76957031 13.70996094 5.5546875 13.4140625 C11.47528276 11.40066142 17.31054196 10.44263862 23.5 9.75 C24.30163574 9.65799316 25.10327148 9.56598633 25.92919922 9.47119141 C31.7402644 8.8701322 31.7402644 8.8701322 34 10 C34 26.17 34 42.34 34 59 C35.65 59 37.3 59 39 59 C38.97752197 58.41476563 38.95504395 57.82953125 38.93188477 57.2265625 C38.76130222 48.84993765 39.66433895 40.6825613 40.65405273 32.38134766 C40.94015581 29.97768757 41.21588278 27.57299577 41.49023438 25.16796875 C41.66867161 23.63274273 41.84768668 22.09758374 42.02734375 20.5625 C42.1508445 19.48911377 42.1508445 19.48911377 42.27684021 18.39404297 C42.63106247 15.44986722 43.05895217 12.82314348 44 10 C62.74476029 11.72297321 78.80535916 18.56612432 94.00390625 29.58203125 C95.93882499 31.03332807 95.93882499 31.03332807 98 32 C98.26554688 31.41734375 98.53109375 30.8346875 98.8046875 30.234375 C100.03302996 27.93825772 101.40314939 26.19643982 103.125 24.25 C103.66382813 23.63640625 104.20265625 23.0228125 104.7578125 22.390625 C105.16773438 21.93171875 105.57765625 21.4728125 106 21 C118.41543577 24.9019941 129.01631413 42.69847401 134.92382812 53.82519531 C140.56450163 65.22426962 146.53869606 78.07129451 146 91 C144.43883181 91.33951619 142.87598662 91.67132544 141.3125 92 C140.44238281 92.185625 139.57226562 92.37125 138.67578125 92.5625 C136.06287036 92.98972047 133.64186962 93.07616201 131 93 C131.23976562 93.96679688 131.23976562 93.96679688 131.484375 94.953125 C134.98327436 115.6284394 129.4683205 136.28055468 121 155 C124.96 157.31 128.92 159.62 133 162 C131.65406237 168.72968813 128.13408737 172.64366071 124 178 C123.33097656 178.88816406 122.66195312 179.77632812 121.97265625 180.69140625 C117.76417534 186.14993099 113.37954778 190.70547965 108 195 C107.05382812 195.78246094 106.10765625 196.56492188 105.1328125 197.37109375 C99.42801615 201.99963081 93.60501385 206.02495199 87.125 209.5 C86.51906006 209.82605225 85.91312012 210.15210449 85.28881836 210.48803711 C81.25881927 212.5657378 77.36581246 213.88342392 73 215 C69.82095994 208.93237701 67.30579505 202.79861877 64.9609375 196.3671875 C64.41054306 194.87398483 64.41054306 194.87398483 63.84902954 193.35061646 C62.68669228 190.19364914 61.53086814 187.03434077 60.375 183.875 C59.59154932 181.74594523 58.80769891 179.61703751 58.0234375 177.48828125 C56.58803355 173.58531362 55.15280319 169.68228915 53.72412109 165.77685547 C53.2958754 164.60725784 53.2958754 164.60725784 52.85897827 163.41403198 C51.86595199 160.6232778 50.93671821 157.81015464 50 155 C44.72 155.66 39.44 156.32 34 157 C34 178.45 34 199.9 34 222 C24.73144679 222 17.55176822 221.96273335 8.875 219.8125 C7.92560547 219.58546387 6.97621094 219.35842773 5.99804688 219.12451172 C-1.00550502 217.38802447 -7.51334166 215.18402779 -14 212 C-15.11246094 211.49855469 -16.22492188 210.99710938 -17.37109375 210.48046875 C-26.21345303 206.34499513 -33.50216569 201.19007252 -41 195 C-39.74833586 191.48197311 -38.37397315 188.95810067 -35.875 186.1875 C-35.33617187 185.58292969 -34.79734375 184.97835937 -34.2421875 184.35546875 C-33.83226562 183.90816406 -33.42234375 183.46085938 -33 183 C-34.34714466 179.96232088 -35.82166703 178.00331798 -38.25 175.75 C-41.93412339 172.17400602 -45.26418242 168.35926978 -48 164 C-48 163.34 -48 162.68 -48 162 C-48.74765625 162.42152344 -49.4953125 162.84304687 -50.265625 163.27734375 C-51.25046875 163.82519531 -52.2353125 164.37304688 -53.25 164.9375 C-54.22453125 165.48277344 -55.1990625 166.02804688 -56.203125 166.58984375 C-58.53610409 167.76610835 -60.45350762 168.52101691 -63 169 C-79.63566904 142.64589888 -84.87097847 112.40713953 -78.1171875 81.921875 C-73.86111637 63.58902024 -65.68175756 48.62949077 -54 34 C-53.46503906 33.32195312 -52.93007812 32.64390625 -52.37890625 31.9453125 C-41.23816276 18.35903995 -25.77022678 9.20099769 -10 2 C-9.36562012 1.69562012 -8.73124023 1.39124023 -8.07763672 1.07763672 C-3.34422993 -1.11474331 -3.34422993 -1.11474331 0 0 Z M1 96 C1 103.26 1 110.52 1 118 C2.65 118 4.3 118 6 118 C6 115.36 6 112.72 6 110 C7.11375 110.061875 8.2275 110.12375 9.375 110.1875 C10.57125 110.125625 11.7675 110.06375 13 110 C14.97944936 107.03082597 15.29350581 106.34297721 15.3125 103 C15.32925781 102.319375 15.34601563 101.63875 15.36328125 100.9375 C15.10200395 98.53732003 15.10200395 98.53732003 12 96 C8.37 96 4.74 96 1 96 Z M18 96 C18 103.26 18 110.52 18 118 C19.65 118 21.3 118 23 118 C23.495 113.545 23.495 113.545 24 109 C24.99 109.33 25.98 109.66 27 110 C27.33 112.64 27.66 115.28 28 118 C29.32 118 30.64 118 32 118 C32.08685287 114.70849875 32.14033895 111.4172904 32.1875 108.125 C32.21263672 107.18785156 32.23777344 106.25070313 32.26367188 105.28515625 C32.27333984 104.38925781 32.28300781 103.49335938 32.29296875 102.5703125 C32.3086792 101.74289551 32.32438965 100.91547852 32.34057617 100.06298828 C32.22818604 99.38220215 32.1157959 98.70141602 32 98 C28.07549967 94.98304964 28.07549967 94.98304964 18 96 Z M52 96 C49.34925593 103.00553789 47.81014691 110.50080288 48 118 C49.32 118 50.64 118 52 118 C52.33 116.68 52.66 115.36 53 114 C54.98 113.67 56.96 113.34 59 113 C59 114.65 59 116.3 59 118 C60.65 118 62.3 118 64 118 C62.81034913 110.63428929 61.51922091 103.30518993 60 96 C57.36 96 54.72 96 52 96 Z M35 105 C34.97313447 106.97909398 34.95366625 108.95828971 34.9375 110.9375 C34.92589844 112.03964844 34.91429687 113.14179688 34.90234375 114.27734375 C34.68737429 116.91447634 34.68737429 116.91447634 36 118 C39.5 118.16666667 39.5 118.16666667 43 118 C44.30547755 116.91830354 44.30547755 116.91830354 44.1328125 114.3125 C44.12894531 112.6728125 44.12894531 112.6728125 44.125 111 C44.12757813 109.906875 44.13015625 108.81375 44.1328125 107.6875 C44.30547755 105.08169646 44.30547755 105.08169646 43 104 C38.85723125 103.75266863 38.85723125 103.75266863 35 105 Z " fill="#B3C4D5" transform="translate(117,35)"/>
<path d="M0 0 C0 16.17 0 32.34 0 49 C1.65 49 3.3 49 5 49 C4.97752197 48.41476563 4.95504395 47.82953125 4.93188477 47.2265625 C4.76130222 38.84993765 5.66433895 30.6825613 6.65405273 22.38134766 C6.94015581 19.97768757 7.21588278 17.57299577 7.49023438 15.16796875 C7.66867161 13.63274273 7.84768668 12.09758374 8.02734375 10.5625 C8.10967758 9.84690918 8.19201141 9.13131836 8.27684021 8.39404297 C8.63106247 5.44986722 9.05895217 2.82314348 10 0 C28.74476029 1.72297321 44.80535916 8.56612432 60.00390625 19.58203125 C61.93882499 21.03332807 61.93882499 21.03332807 64 22 C64.26554687 21.41734375 64.53109375 20.8346875 64.8046875 20.234375 C66.03302996 17.93825772 67.40314939 16.19643982 69.125 14.25 C69.66382813 13.63640625 70.20265625 13.0228125 70.7578125 12.390625 C71.16773438 11.93171875 71.57765625 11.4728125 72 11 C84.41543577 14.9019941 95.01631413 32.69847401 100.92382812 43.82519531 C106.56450163 55.22426962 112.53869606 68.07129451 112 81 C110.43883181 81.33951619 108.87598662 81.67132544 107.3125 82 C106.44238281 82.185625 105.57226562 82.37125 104.67578125 82.5625 C102.06287036 82.98972047 99.64186962 83.07616201 97 83 C97.15984375 83.64453125 97.3196875 84.2890625 97.484375 84.953125 C100.98327436 105.6284394 95.4683205 126.28055468 87 145 C90.96 147.31 94.92 149.62 99 152 C97.65406237 158.72968813 94.13408737 162.64366071 90 168 C89.33097656 168.88816406 88.66195312 169.77632812 87.97265625 170.69140625 C83.76417534 176.14993099 79.37954778 180.70547965 74 185 C73.05382812 185.78246094 72.10765625 186.56492188 71.1328125 187.37109375 C65.42801615 191.99963081 59.60501385 196.02495199 53.125 199.5 C52.51906006 199.82605225 51.91312012 200.15210449 51.28881836 200.48803711 C47.25881927 202.5657378 43.36581246 203.88342392 39 205 C35.83265489 198.954335 33.32728917 192.84735154 30.99609375 186.4375 C30.44925682 184.95141235 30.44925682 184.95141235 29.89137268 183.43530273 C28.73572044 180.29178255 27.58646867 177.1459684 26.4375 174 C25.66254178 171.88786213 24.88715507 169.77588143 24.11132812 167.6640625 C22.68407626 163.77832257 21.25972913 159.89154052 19.83764648 156.00390625 C18.24680699 151.6609481 16.63037572 147.32826312 15 143 C15.94359375 142.56300781 15.94359375 142.56300781 16.90625 142.1171875 C23.28001618 139.06469105 29.83478168 135.74452884 34.47265625 130.2578125 C34.97667969 129.84273437 35.48070312 129.42765625 36 129 C41.06095828 129.73618668 44.51229025 133.41611008 48.31054688 136.58203125 C49.8172405 137.79503257 51.40478638 138.90602039 53 140 C56.15539038 139.27608468 56.15539038 139.27608468 57.6875 136.625 C59.2236068 134.04192627 59.2236068 134.04192627 59 131 C53.72 128.03 48.44 125.06 43 122 C44.09680742 113.22554068 44.09680742 113.22554068 45.5 108.8125 C47.28860496 102.60036962 47.70331894 96.43490987 48 90 C54.7831364 88.57997892 61.06697907 87.77268784 68 88 C67.52202924 85.58309124 67.0426678 83.16647237 66.5625 80.75 C66.42779297 80.06808594 66.29308594 79.38617188 66.15429688 78.68359375 C65.50779289 75.43530542 64.84997305 72.20184022 64 69 C58.68046965 70.83836711 53.47087935 72.65085378 48.5 75.3125 C45 77 45 77 42 76 C41.05254963 74.61266196 40.11138664 73.22049482 39.20703125 71.8046875 C31.41487645 60.15428129 20.54168657 54.03830362 7 51 C4.36 50.67 1.72 50.34 -1 50 C-1 33.83 -1 17.66 -1 1 C-10.405 1.495 -10.405 1.495 -20 2 C-20 1.67 -20 1.34 -20 1 C-17.41765641 0.63667026 -14.83460218 0.28405133 -12.25 -0.0625 C-11.52039063 -0.16626953 -10.79078125 -0.27003906 -10.0390625 -0.37695312 C-6.25302738 -0.87602139 -3.75922876 -0.93980719 0 0 Z " fill="#B4C4D6" transform="translate(151,45)"/>
<path d="M0 0 C9.50641054 9.24452595 9.50641054 9.24452595 12 15 C17.05925221 13.49589799 21.6775813 11.3187071 26.4140625 9.0234375 C29 8 29 8 33 8 C35.79263303 14.43519784 36.56210082 19.9936132 37 27 C30.4 27.66 23.8 28.32 17 29 C17.061875 30.918125 17.12375 32.83625 17.1875 34.8125 C17.19957148 40.36537875 16.48488492 45.00969752 14.75390625 50.26953125 C13.78930232 53.76309677 13.44953755 57.40369958 13 61 C18.28 63.97 23.56 66.94 29 70 C28.01574101 74.92129494 27.1837982 76.40538913 24 80 C18.47405799 78.18476315 14.89794581 74.61495029 10.62109375 70.80078125 C8.23453406 68.78173686 8.23453406 68.78173686 5.8515625 69.0625 C3.86003989 70.07086588 2.53472971 71.13112016 0.9375 72.6875 C-3.53740063 76.69085196 -8.63184709 79.3675404 -14 82 C-15.06992188 82.54269531 -16.13984375 83.08539063 -17.2421875 83.64453125 C-21.84749242 85.30569633 -25.76759414 85.53616625 -30.625 85.5 C-31.50510742 85.49500488 -32.38521484 85.49000977 -33.29199219 85.48486328 C-44.59555832 85.18500651 -53.40513308 81.34434355 -62 74 C-62.99 73.29875 -63.98 72.5975 -65 71.875 C-73.24718628 64.82535036 -78.31501846 54.55153596 -79.17138672 43.86035156 C-79.99588447 29.72358944 -78.52894986 18.04110059 -69 7 C-68.34064453 6.11054687 -68.34064453 6.11054687 -67.66796875 5.203125 C-61.16226821 -3.27115928 -51.11606141 -8.46516323 -40.8125 -10.6875 C-25.43814812 -11.94769278 -12.32821833 -9.92803423 0 0 Z M-64 25 C-64 32.26 -64 39.52 -64 47 C-62.35 47 -60.7 47 -59 47 C-59 44.36 -59 41.72 -59 39 C-57.88625 39.061875 -56.7725 39.12375 -55.625 39.1875 C-54.42875 39.125625 -53.2325 39.06375 -52 39 C-50.02055064 36.03082597 -49.70649419 35.34297721 -49.6875 32 C-49.67074219 31.319375 -49.65398437 30.63875 -49.63671875 29.9375 C-49.89799605 27.53732003 -49.89799605 27.53732003 -53 25 C-56.63 25 -60.26 25 -64 25 Z M-47 25 C-47 32.26 -47 39.52 -47 47 C-45.35 47 -43.7 47 -42 47 C-41.505 42.545 -41.505 42.545 -41 38 C-40.01 38.33 -39.02 38.66 -38 39 C-37.67 41.64 -37.34 44.28 -37 47 C-35.68 47 -34.36 47 -33 47 C-32.91314713 43.70849875 -32.85966105 40.4172904 -32.8125 37.125 C-32.78736328 36.18785156 -32.76222656 35.25070313 -32.73632812 34.28515625 C-32.72666016 33.38925781 -32.71699219 32.49335938 -32.70703125 31.5703125 C-32.6913208 30.74289551 -32.67561035 29.91547852 -32.65942383 29.06298828 C-32.77181396 28.38220215 -32.8842041 27.70141602 -33 27 C-36.92450033 23.98304964 -36.92450033 23.98304964 -47 25 Z M-13 25 C-15.65074407 32.00553789 -17.18985309 39.50080288 -17 47 C-15.68 47 -14.36 47 -13 47 C-12.67 45.68 -12.34 44.36 -12 43 C-10.02 42.67 -8.04 42.34 -6 42 C-6 43.65 -6 45.3 -6 47 C-4.35 47 -2.7 47 -1 47 C-2.18965087 39.63428929 -3.48077909 32.30518993 -5 25 C-7.64 25 -10.28 25 -13 25 Z M-30 34 C-30.02686553 35.97909398 -30.04633375 37.95828971 -30.0625 39.9375 C-30.07410156 41.03964844 -30.08570313 42.14179688 -30.09765625 43.27734375 C-30.31262571 45.91447634 -30.31262571 45.91447634 -29 47 C-25.5 47.16666667 -25.5 47.16666667 -22 47 C-20.69452245 45.91830354 -20.69452245 45.91830354 -20.8671875 43.3125 C-20.87105469 41.6728125 -20.87105469 41.6728125 -20.875 40 C-20.87242187 38.906875 -20.86984375 37.81375 -20.8671875 36.6875 C-20.69452245 34.08169646 -20.69452245 34.08169646 -22 33 C-26.14276875 32.75266863 -26.14276875 32.75266863 -30 34 Z " fill="#2C5A8D" transform="translate(182,106)"/>
<path d="M0 0 C5.23681096 1.03039105 10.14567757 2.32934286 15.11328125 4.28125 C18.80960425 5.68937305 22.64007589 6.64167079 26.4609375 7.6484375 C33.40539731 9.49896691 40.20410313 11.66353982 47 14 C46.97643433 14.95869995 46.97643433 14.95869995 46.95239258 15.93676758 C46.8891737 18.89525123 46.8507382 21.85359204 46.8125 24.8125 C46.78736328 25.81732422 46.76222656 26.82214844 46.73632812 27.85742188 C46.63704983 38.14927129 48.36927517 47.03131979 54.6875 55.3125 C55.13029297 55.90861084 55.57308594 56.50472168 56.02929688 57.11889648 C62.00591814 64.91967716 69.16908164 68.91027142 78 73 C77.01 73.495 77.01 73.495 76 74 C75.45458042 75.78312114 75.45458042 75.78312114 75.125 77.9375 C74.04721828 83.25904726 72.10915823 88.01401199 70 93 C66.48445277 101.5984426 63.2400444 110.29508073 60 119 C53.30510435 117.9387091 48.37234841 115.86233625 42.75 112.125 C42.069375 111.69058594 41.38875 111.25617188 40.6875 110.80859375 C36.95109095 108.39730652 33.420793 105.85066084 30 103 C31.58998961 99.38638725 33.80668672 96.59895609 36.3125 93.5625 C37.07175781 92.63566406 37.83101562 91.70882812 38.61328125 90.75390625 C41 88 41 88 43.85546875 85.40234375 C46.20960449 83.28431862 46.20960449 83.28431862 46.05859375 80.97265625 C44.69632571 78.43411248 43.03081511 76.54107003 41.0625 74.4375 C38.7977281 72.00009576 36.85094938 69.77642407 35 67 C29.07609965 68.93145061 24.19348302 72.80598465 19.15039062 76.36328125 C18.05307617 77.10384766 18.05307617 77.10384766 16.93359375 77.859375 C15.9444397 78.54725098 15.9444397 78.54725098 14.93530273 79.24902344 C13 80 13 80 10.84960938 79.26342773 C2.62317524 73.6441304 -0.7177743 58.41983632 -2.57519531 49.12011719 C-3.95271598 41.04828647 -4.30469618 33.177079 -4.25 25 C-4.25773437 23.81277344 -4.26546875 22.62554687 -4.2734375 21.40234375 C-4.27085938 20.25894531 -4.26828125 19.11554688 -4.265625 17.9375 C-4.26336914 16.91527344 -4.26111328 15.89304688 -4.25878906 14.83984375 C-3.98629763 11.84963592 -3.21483274 9.72915158 -2 7 C-1.31320058 4.67251306 -0.64238957 2.34013344 0 0 Z " fill="#7C99B8" transform="translate(57,115)"/>
<path d="M0 0 C6.99678663 3.26108436 12.03895659 8.43952185 16 15 C14.86169311 18.41492066 14.14822803 18.88494631 11.2890625 20.8828125 C10.53882813 21.41003906 9.78859375 21.93726562 9.015625 22.48046875 C8.22671875 23.02316406 7.4378125 23.56585938 6.625 24.125 C5.84382813 24.67542969 5.06265625 25.22585937 4.2578125 25.79296875 C-1.57602777 29.85867592 -1.57602777 29.85867592 -5 31 C-3.43358249 35.30764815 -1.31663844 39.06171464 1 43 C4.71452617 41.43164451 8.39689222 39.82720275 12.04296875 38.10546875 C12.72423828 37.79029297 13.40550781 37.47511719 14.10742188 37.15039062 C15.51128513 36.50052716 16.90968368 35.83874463 18.30273438 35.16601562 C23.36182883 32.86030084 23.36182883 32.86030084 26.35546875 33.515625 C32.03330312 38.64051113 33.72707233 49.6331572 34.1875 57 C34 59 34 59 33 60 C31.15153557 60.29849 29.29362103 60.53892822 27.43359375 60.75390625 C26.30888672 60.88603516 25.18417969 61.01816406 24.02539062 61.15429688 C22.84138672 61.28900391 21.65738281 61.42371094 20.4375 61.5625 C19.24962891 61.70107422 18.06175781 61.83964844 16.83789062 61.98242188 C13.89235278 62.32547648 10.94640467 62.66448547 8 63 C8.00169189 64.00244751 8.00169189 64.00244751 8.00341797 65.02514648 C7.94616903 79.5327735 6.8482049 91.67539679 1 105 C0.505 106.485 0.505 106.485 0 108 C7.26 111.96 14.52 115.92 22 120 C22 129.16926916 12.95835943 136.69546828 7 143 C6.4121875 143.64066406 5.824375 144.28132812 5.21875 144.94140625 C-0.49946648 150.969809 -7.15088105 156.13688721 -15 159 C-19.48392896 152.56031478 -23.33352946 145.93205136 -27 139 C-27.76905008 137.56484622 -28.5386173 136.12996948 -29.30859375 134.6953125 C-30.12277564 133.17207795 -30.93657787 131.64864041 -31.75 130.125 C-32.33358276 129.03638672 -32.33358276 129.03638672 -32.92895508 127.92578125 C-34.48889383 124.98782279 -35.93255206 122.18425995 -37.078125 119.0546875 C-37.38234375 118.37664062 -37.6865625 117.69859375 -38 117 C-38.99 116.67 -39.98 116.34 -41 116 C-40.33613281 115.62488281 -39.67226562 115.24976563 -38.98828125 114.86328125 C-33.1092158 111.54074907 -33.1092158 111.54074907 -28.125 107.0625 C-27.42375 106.381875 -26.7225 105.70125 -26 105 C-20.96489668 105.58758736 -17.44080019 109.45521012 -13.68945312 112.58203125 C-12.1827595 113.79503257 -10.59521362 114.90602039 -9 116 C-5.84460962 115.27608468 -5.84460962 115.27608468 -4.3125 112.625 C-2.7763932 110.04192627 -2.7763932 110.04192627 -3 107 C-8.28 104.03 -13.56 101.06 -19 98 C-17.90319258 89.22554068 -17.90319258 89.22554068 -16.5 84.8125 C-14.71139504 78.60036962 -14.29668106 72.43490987 -14 66 C-7.2168636 64.57997892 -0.93302093 63.77268784 6 64 C5.52202924 61.58309124 5.0426678 59.16647237 4.5625 56.75 C4.42779297 56.06808594 4.29308594 55.38617188 4.15429688 54.68359375 C3.50779289 51.43530542 2.84997305 48.20184022 2 45 C-3.31953035 46.83836711 -8.52912065 48.65085378 -13.5 51.3125 C-17 53 -17 53 -20 52 C-20.93870327 50.62547022 -21.86999098 49.24485823 -22.75 47.83203125 C-25.16636838 44.29054135 -28.12998095 41.1763694 -31 38 C-27.19655279 29.43726544 -19.52219964 22.41098871 -13.27734375 15.5625 C-10.01272019 11.88909853 -6.92978016 8.07683463 -3.84765625 4.25 C-2 2 -2 2 0 0 Z " fill="#7C99B8" transform="translate(213,69)"/>
<path d="M0 0 C10.395 0.99 10.395 0.99 21 2 C20.01 2.33 19.02 2.66 18 3 C18 24.45 18 45.9 18 68 C8.73144679 68 1.55176822 67.96273335 -7.125 65.8125 C-8.5490918 65.4719458 -8.5490918 65.4719458 -10.00195312 65.12451172 C-17.00550502 63.38802447 -23.51334166 61.18402779 -30 58 C-31.11246094 57.49855469 -32.22492188 56.99710938 -33.37109375 56.48046875 C-42.21345303 52.34499513 -49.50216569 47.19007252 -57 41 C-54.81842385 35.30005209 -52.4923379 32.81314868 -47 30 C-42.29402349 30 -41.46960175 30.85269017 -37.875 33.6875 C-31.11471996 38.78704369 -24.16672636 42.63594763 -16 45 C-15.82984375 44.32195312 -15.6596875 43.64390625 -15.484375 42.9453125 C-14.02923434 37.35695317 -12.32086047 32.05847799 -10.1015625 26.73046875 C-8.80542969 23.51771402 -7.65150584 20.26730952 -6.5 17 C-4.47450127 11.26840297 -2.30155472 5.62602264 0 0 Z " fill="#B4C4D6" transform="translate(133,189)"/>
<path d="M0 0 C3.77654135 1.51401883 5.72807649 3.72726584 8.25 6.875 C8.95640625 7.73867187 9.6628125 8.60234375 10.390625 9.4921875 C12 12 12 12 12 16 C12.66 16 13.32 16 14 16 C16.24828052 20.49656104 16.16682272 24.07872966 16 29 C14.27192682 29.33895656 12.54248026 29.67091525 10.8125 30 C9.84957031 30.185625 8.88664062 30.37125 7.89453125 30.5625 C5.2065794 30.96877612 2.71228981 31.07933572 0 31 C0 32.65 0 34.3 0 36 C-2 33 -2 33 -2 30 C-2.66 30 -3.32 30 -4 30 C-4 28.02 -4 26.04 -4 24 C-7.96 24.495 -7.96 24.495 -12 25 C-13.32 31.93 -14.64 38.86 -16 46 C-14.68 46 -13.36 46 -12 46 C-11.67 44.35 -11.34 42.7 -11 41 C-9.02 41 -7.04 41 -5 41 C-3.01419214 50.22816594 -3.01419214 50.22816594 -5.17578125 54.11328125 C-11.61556172 60.78992721 -20.98828172 65.92600391 -30.3125 66.3125 C-39.51579959 66.03501358 -46.4235381 62.33524032 -53 56 C-55.90731398 52.74088775 -57.94214263 49.95497005 -58.07421875 45.4921875 C-57.84177345 43.27875314 -57.50635047 41.16577626 -57 39 C-54.69 39 -52.38 39 -50 39 C-49.97296619 37.06257659 -49.95358875 35.12504521 -49.9375 33.1875 C-49.92589844 32.10855469 -49.91429687 31.02960938 -49.90234375 29.91796875 C-49.86375234 26.93487831 -49.86375234 26.93487831 -51 24 C-52.98 23.67 -54.96 23.34 -57 23 C-53.60799057 16.07464742 -49.14604319 10.49021481 -41.70703125 7.81640625 C-37.85760515 6.96864012 -34.43775757 6.73372827 -30.5 6.75 C-29.2521875 6.74484375 -28.004375 6.7396875 -26.71875 6.734375 C-21.28703005 7.122355 -16.66592206 7.78418963 -13 12 C-12.01 12.33 -11.02 12.66 -10 13 C-9.75507813 12.43796875 -9.51015625 11.8759375 -9.2578125 11.296875 C-7.77073461 8.58134146 -5.95937218 6.53608562 -3.875 4.25 C-3.15054688 3.45078125 -2.42609375 2.6515625 -1.6796875 1.828125 C-1.12539062 1.22484375 -0.57109375 0.6215625 0 0 Z M-46 24 C-46 31.26 -46 38.52 -46 46 C-44.35 46 -42.7 46 -41 46 C-40.505 41.545 -40.505 41.545 -40 37 C-39.01 37.33 -38.02 37.66 -37 38 C-36.67 40.64 -36.34 43.28 -36 46 C-34.68 46 -33.36 46 -32 46 C-31.91314713 42.70849875 -31.85966105 39.4172904 -31.8125 36.125 C-31.78736328 35.18785156 -31.76222656 34.25070313 -31.73632812 33.28515625 C-31.72666016 32.38925781 -31.71699219 31.49335938 -31.70703125 30.5703125 C-31.6913208 29.74289551 -31.67561035 28.91547852 -31.65942383 28.06298828 C-31.77181396 27.38220215 -31.8842041 26.70141602 -32 26 C-35.92450033 22.98304964 -35.92450033 22.98304964 -46 24 Z M-29 33 C-29.02686553 34.97909398 -29.04633375 36.95828971 -29.0625 38.9375 C-29.07410156 40.03964844 -29.08570313 41.14179688 -29.09765625 42.27734375 C-29.31262571 44.91447634 -29.31262571 44.91447634 -28 46 C-24.5 46.16666667 -24.5 46.16666667 -21 46 C-19.69452245 44.91830354 -19.69452245 44.91830354 -19.8671875 42.3125 C-19.87105469 40.6728125 -19.87105469 40.6728125 -19.875 39 C-19.87242187 37.906875 -19.86984375 36.81375 -19.8671875 35.6875 C-19.69452245 33.08169646 -19.69452245 33.08169646 -21 32 C-25.14276875 31.75266863 -25.14276875 31.75266863 -29 33 Z " fill="#225387" transform="translate(181,107)"/>
<path d="M0 0 C0.25394531 1.07378906 0.50789063 2.14757813 0.76953125 3.25390625 C1.1168659 4.69018198 1.46454033 6.12637556 1.8125 7.5625 C1.97814453 8.26697266 2.14378906 8.97144531 2.31445312 9.69726562 C3.17659482 13.22716654 4.15048398 16.51875123 5.63671875 19.83984375 C7 23 7 23 7 26 C7.89138672 25.67515625 7.89138672 25.67515625 8.80078125 25.34375 C9.62964844 25.0653125 10.45851562 24.786875 11.3125 24.5 C12.11300781 24.2215625 12.91351563 23.943125 13.73828125 23.65625 C17 23 17 23 28 23 C28 30.26 28 37.52 28 45 C25.586875 45.37125 23.17375 45.7425 20.6875 46.125 C8.95016145 48.18344947 0.34989821 53.65010179 -8 62 C-8.33 61.34 -8.66 60.68 -9 60 C-13.15593031 53.76610453 -18.99521654 48.92006807 -24.6484375 44.06640625 C-28.34446793 40.81856555 -31.93045072 37.45143354 -35.52026367 34.08691406 C-37.93320669 31.83971807 -40.24977364 29.83348424 -43 28 C-43 25 -43 25 -41.7421875 23.52734375 C-14.11056511 0 -14.11056511 0 0 0 Z " fill="#7C99B8" transform="translate(122,50)"/>
<path d="M0 0 C2.79263303 6.43519784 3.56210082 11.9936132 4 19 C-2.6 19.66 -9.2 20.32 -16 21 C-15.938125 22.918125 -15.87625 24.83625 -15.8125 26.8125 C-15.80042852 32.36537875 -16.51511508 37.00969752 -18.24609375 42.26953125 C-19.21069768 45.76309677 -19.55046245 49.40369958 -20 53 C-14.72 55.97 -9.44 58.94 -4 62 C-4.98425899 66.92129494 -5.8162018 68.40538913 -9 72 C-14.52594201 70.18476315 -18.10205419 66.61495029 -22.37890625 62.80078125 C-24.76546594 60.78173686 -24.76546594 60.78173686 -27.1484375 61.0625 C-29.13996011 62.07086588 -30.46527029 63.13112016 -32.0625 64.6875 C-36.53740063 68.69085196 -41.63184709 71.3675404 -47 74 C-48.06992188 74.54269531 -49.13984375 75.08539063 -50.2421875 75.64453125 C-54.8480625 77.30590196 -58.76721268 77.53479458 -63.625 77.5 C-64.50148193 77.49718018 -65.37796387 77.49436035 -66.28100586 77.49145508 C-74.2906885 77.29373051 -82.6835727 75.91319417 -88.83984375 70.33203125 C-89.22269531 69.89246094 -89.60554688 69.45289063 -90 69 C-89.57074219 68.62230469 -89.14148438 68.24460937 -88.69921875 67.85546875 C-86.57787037 65.53905385 -85.28079604 63.08594807 -83.8125 60.3125 C-83.28269531 59.31863281 -82.75289062 58.32476562 -82.20703125 57.30078125 C-81.80871094 56.54152344 -81.41039062 55.78226563 -81 55 C-77.89740977 55.47633128 -75.13161756 55.95027781 -72.1875 57.0625 C-64.38290568 59.35796892 -58.29563246 57.94404905 -50.953125 54.62109375 C-46.41122378 52.12785432 -42.04464263 49.25173579 -39 45 C-38.68638651 41.8296876 -38.68638651 41.8296876 -39 39 C-37.35 39 -35.7 39 -34 39 C-34.22816406 38.18015625 -34.45632812 37.3603125 -34.69140625 36.515625 C-34.97886719 35.43796875 -35.26632813 34.3603125 -35.5625 33.25 C-35.85253906 32.18265625 -36.14257812 31.1153125 -36.44140625 30.015625 C-36.97098494 27.15664073 -36.98370862 25.68402617 -36 23 C-35.505 24.485 -35.505 24.485 -35 26 C-34.67 25.34 -34.34 24.68 -34 24 C-28.80567752 22.41529145 -23.42141225 21.71466251 -18 22 C-18.51958285 17.62065881 -19.05675742 13.31196609 -20 9 C-20.66 9 -21.32 9 -22 9 C-21 7 -21 7 -18.625 6.1875 C-17.42875 5.795625 -16.2325 5.40375 -15 5 C-12.17843898 3.7074641 -9.37879401 2.37683855 -6.5859375 1.0234375 C-4 0 -4 0 0 0 Z " fill="#2B5A8C" transform="translate(215,114)"/>
<path d="M0 0 C2.79263303 6.43519784 3.56210082 11.9936132 4 19 C-2.6 19.66 -9.2 20.32 -16 21 C-15.938125 22.918125 -15.87625 24.83625 -15.8125 26.8125 C-15.80042852 32.36537875 -16.51511508 37.00969752 -18.24609375 42.26953125 C-19.21069768 45.76309677 -19.55046245 49.40369958 -20 53 C-14.72 55.97 -9.44 58.94 -4 62 C-4.98425899 66.92129494 -5.8162018 68.40538913 -9 72 C-13.29061782 70.56459331 -16.1886981 68.4156501 -19.625 65.5 C-22.37251375 63.18155004 -25.00745988 60.99502675 -28 59 C-27.34 59 -26.68 59 -26 59 C-24.92474806 56.34771188 -23.90543849 53.71631546 -23 51 C-23.804375 50.773125 -24.60875 50.54625 -25.4375 50.3125 C-28.36073466 49.23551881 -31.04221788 48.09476791 -33.8125 46.6875 C-34.58207031 46.29949219 -35.35164062 45.91148437 -36.14453125 45.51171875 C-38.56318272 43.54115429 -38.68996024 42.03432358 -39 39 C-37.35 39 -35.7 39 -34 39 C-34.22816406 38.18015625 -34.45632812 37.3603125 -34.69140625 36.515625 C-34.97886719 35.43796875 -35.26632813 34.3603125 -35.5625 33.25 C-35.85253906 32.18265625 -36.14257812 31.1153125 -36.44140625 30.015625 C-36.97098494 27.15664073 -36.98370862 25.68402617 -36 23 C-35.67 23.99 -35.34 24.98 -35 26 C-34.67 25.34 -34.34 24.68 -34 24 C-28.80567752 22.41529145 -23.42141225 21.71466251 -18 22 C-18.51958285 17.62065881 -19.05675742 13.31196609 -20 9 C-20.66 9 -21.32 9 -22 9 C-21 7 -21 7 -18.625 6.1875 C-16.830625 5.5996875 -16.830625 5.5996875 -15 5 C-12.17843898 3.7074641 -9.37879401 2.37683855 -6.5859375 1.0234375 C-4 0 -4 0 0 0 Z " fill="#305E8F" transform="translate(215,114)"/>
<path d="M0 0 C0.33 0 0.66 0 1 0 C1 6.93 1 13.86 1 21 C3.31 21 5.62 21 8 21 C8 18.03 8 15.06 8 12 C8.99 12 9.98 12 11 12 C11 14.97 11 17.94 11 21 C15.64586892 20.51515724 15.64586892 20.51515724 20 19 C22.33333333 19 24.66666667 19 27 19 C27.66 18.67 28.32 18.34 29 18 C29.65772428 14.97065509 29.65772428 14.97065509 30 12 C30.66 12 31.32 12 32 12 C32 14.64 32 17.28 32 20 C33.32 20 34.64 20 36 20 C36.33 18.35 36.66 16.7 37 15 C38.98 15 40.96 15 43 15 C44.98580786 24.22816594 44.98580786 24.22816594 42.82421875 28.11328125 C36.38443828 34.78992721 27.01171828 39.92600391 17.6875 40.3125 C8.48420041 40.03501358 1.5764619 36.33524032 -5 30 C-7.90731398 26.74088775 -9.94214263 23.95497005 -10.07421875 19.4921875 C-9.84177345 17.27875314 -9.50635047 15.16577626 -9 13 C-6.69 13 -4.38 13 -2 13 C-1.34 8.71 -0.68 4.42 0 0 Z " fill="#10457D" transform="translate(133,133)"/>
<path d="M0 0 C0.99 0 1.98 0 3 0 C3.86846831 1.74294678 4.71930627 3.49468663 5.5625 5.25 C6.03816406 6.22453125 6.51382813 7.1990625 7.00390625 8.203125 C8.03510273 11.09856297 8.11346788 12.19966161 7 15 C5.0625 15.5625 5.0625 15.5625 3 16 C2.505 15.505 2.505 15.505 2 15 C1.38125 15.67482422 1.38125 15.67482422 0.75 16.36328125 C-1.08166213 18.07637596 -2.75808976 19.07928301 -5 20.1875 C-5.680625 20.53167969 -6.36125 20.87585938 -7.0625 21.23046875 C-9 22 -9 22 -12 22 C-12.66 22.99 -13.32 23.98 -14 25 C-14.66 25 -15.32 25 -16 25 C-16.495 25.495 -16.99 25.99 -17.5 26.5 C-17.995 26.995 -18.49 27.49 -19 28 C-19.66 28 -20.32 28 -21 28 C-22.68933922 29.6436814 -24.35259924 31.3142876 -26 33 C-30.44827586 36.72413793 -30.44827586 36.72413793 -33 38 C-34.03108541 39.11794315 -35.02758233 40.26816775 -36 41.4375 C-37.61903915 43.37629938 -39.21204833 45.21204833 -41 47 C-44.97689776 46.91162449 -46.68160711 46.26773948 -49.75 43.6875 C-52 41 -52 41 -54 37 C-51.69 35.02 -49.38 33.04 -47 31 C-46.34 32.32 -45.68 33.64 -45 35 C-45.99 35.99 -46.98 36.98 -48 38 C-46.35 37.01 -44.7 36.02 -43 35 C-42.67 36.65 -42.34 38.3 -42 40 C-42.66 40 -43.32 40 -44 40 C-44 40.66 -44 41.32 -44 42 C-42.68 40.68 -41.36 39.36 -40 38 C-40.845625 37.113125 -41.69125 36.22625 -42.5625 35.3125 C-44.99099375 32.3872689 -44.99099375 32.3872689 -45.0625 29.3125 C-43.78954826 26.54195798 -42.64946793 25.48058502 -40 24 C-39.01 24 -38.02 24 -37 24 C-36.34 22.68 -35.68 21.36 -35 20 C-34.34 20 -33.68 20 -33 20 C-32.67 19.01 -32.34 18.02 -32 17 C-27.25 15.875 -27.25 15.875 -25 17 C-24.67 15.35 -24.34 13.7 -24 12 C-22.88625 11.87625 -22.88625 11.87625 -21.75 11.75 C-18.43964342 10.84717548 -17.35665351 9.43029893 -15 7 C-12.25 5.75 -12.25 5.75 -10 5 C-9.375 6.875 -9.375 6.875 -9 9 C-9.66 9.66 -10.32 10.32 -11 11 C-9.68 11 -8.36 11 -7 11 C-7.33 12.32 -7.66 13.64 -8 15 C-8.66 15 -9.32 15 -10 15 C-10 15.66 -10 16.32 -10 17 C-8.68 16.34 -7.36 15.68 -6 15 C-6.66 11.37 -7.32 7.74 -8 4 C-6.35 3.34 -4.7 2.68 -3 2 C-2.505 2.495 -2.505 2.495 -2 3 C-1.34 2.01 -0.68 1.02 0 0 Z M-18 12 C-17 14 -17 14 -17 14 Z M-17 14 C-16 16 -16 16 -16 16 Z M-25 17 C-24.67 17.99 -24.34 18.98 -24 20 C-24 19.01 -24 18.02 -24 17 C-24.33 17 -24.66 17 -25 17 Z M-18 22 C-17 24 -17 24 -17 24 Z " fill="#4F749F" transform="translate(102,16)"/>
<path d="M0 0 C0.33 0 0.66 0 1 0 C1.25652344 0.86753906 1.51304688 1.73507813 1.77734375 2.62890625 C5.30261482 12.3487431 11.6487503 19.21303444 20 25 C20.66 25.66 21.32 26.32 22 27 C21.34 27 20.68 27 20 27 C19.75507812 27.68449219 19.51015625 28.36898437 19.2578125 29.07421875 C17.77245937 32.52927929 15.87594838 35.6413857 13.875 38.8125 C13.50246094 39.40998047 13.12992188 40.00746094 12.74609375 40.62304688 C11.8342952 42.08426251 10.91764024 43.54244585 10 45 C6.44687712 43.26978364 3.20269206 41.32923059 0 39 C0 38.34 0 37.68 0 37 C-0.87591797 36.62294922 -0.87591797 36.62294922 -1.76953125 36.23828125 C-4.28059332 34.84422403 -5.79212225 33.33778756 -7.6875 31.1875 C-8.28949219 30.52105469 -8.89148438 29.85460937 -9.51171875 29.16796875 C-11.17013389 26.75216718 -11.62277986 24.88196185 -12 22 C-12.99 21.67 -13.98 21.34 -15 21 C-16.16796875 19.2578125 -16.16796875 19.2578125 -17.1875 17.125 C-17.53167969 16.42632812 -17.87585938 15.72765625 -18.23046875 15.0078125 C-19 13 -19 13 -19 10 C-17.79601562 9.61328125 -16.59203125 9.2265625 -15.3515625 8.828125 C-13.77578106 8.30286452 -12.20027419 7.77677979 -10.625 7.25 C-9.43390625 6.87101563 -9.43390625 6.87101563 -8.21875 6.484375 C-7.45820312 6.2265625 -6.69765625 5.96875 -5.9140625 5.703125 C-5.2123291 5.47270508 -4.5105957 5.24228516 -3.78759766 5.00488281 C-1.50630494 3.72247352 -0.95309589 2.38920869 0 0 Z " fill="#7B98B7" transform="translate(105,158)"/>
<path d="M0 0 C0 7.26 0 14.52 0 22 C-2.413125 22.37125 -4.82625 22.7425 -7.3125 23.125 C-13.92119095 24.25184924 -19.13439749 26.18719352 -24.86328125 29.79296875 C-27 31 -27 31 -30 31 C-32.03802989 28.79385477 -33.86382369 26.62195576 -35.6875 24.25 C-36.19861328 23.61578125 -36.70972656 22.9815625 -37.23632812 22.328125 C-37.71908203 21.709375 -38.20183594 21.090625 -38.69921875 20.453125 C-39.14096436 19.88754883 -39.58270996 19.32197266 -40.0378418 18.73925781 C-41 17 -41 17 -41 13 C-29.35040916 2.90368794 -14.97080238 0 0 0 Z " fill="#567AA3" transform="translate(150,73)"/>
<path d="M0 0 C2.93131473 2.17220932 3.3715358 4.640621 4.4609375 8.078125 C5.82518405 12.24112627 7.21935783 16.25747086 9.2734375 20.140625 C10.9609375 23.453125 10.9609375 23.453125 10.9609375 26.453125 C11.6209375 26.453125 12.2809375 26.453125 12.9609375 26.453125 C14.9609375 29.453125 14.9609375 29.453125 14.9609375 32.453125 C15.6209375 32.453125 16.2809375 32.453125 16.9609375 32.453125 C18.9609375 35.453125 18.9609375 35.453125 18.9609375 38.453125 C20.4459375 38.948125 20.4459375 38.948125 21.9609375 39.453125 C22.8359375 41.515625 22.8359375 41.515625 22.9609375 44.453125 C21.22174617 47.04318225 19.15695816 49.24437379 16.9609375 51.453125 C15.9709375 50.793125 14.9809375 50.133125 13.9609375 49.453125 C13.9609375 48.793125 13.9609375 48.133125 13.9609375 47.453125 C12.33753945 45.74428495 10.66774697 44.07865783 8.9609375 42.453125 C8.3009375 41.793125 7.6409375 41.133125 6.9609375 40.453125 C6.9609375 39.133125 6.9609375 37.813125 6.9609375 36.453125 C6.0328125 36.1128125 6.0328125 36.1128125 5.0859375 35.765625 C2.24492667 34.01088301 2.09751942 32.59543972 0.9609375 29.453125 C-0.25945569 27.18902854 -1.53413368 24.96166027 -2.8203125 22.734375 C-4.0903323 20.35715844 -5.06395132 17.96442324 -6.0390625 15.453125 C-6.41546875 14.61652344 -6.791875 13.77992188 -7.1796875 12.91796875 C-7.54578125 12.08394531 -7.911875 11.24992188 -8.2890625 10.390625 C-8.66546875 9.55402344 -9.041875 8.71742188 -9.4296875 7.85546875 C-10.0390625 5.453125 -10.0390625 5.453125 -9.328125 3.23046875 C-7.07118428 0.11862624 -3.70909866 -0.99477742 0 0 Z M-2.0390625 3.453125 C-3.3590625 4.443125 -4.6790625 5.433125 -6.0390625 6.453125 C-5.7090625 7.113125 -5.3790625 7.773125 -5.0390625 8.453125 C-3.3890625 8.123125 -1.7390625 7.793125 -0.0390625 7.453125 C-0.6990625 6.133125 -1.3590625 4.813125 -2.0390625 3.453125 Z " fill="#EF898D" transform="translate(32.0390625,182.546875)"/>
<path d="M0 0 C14.49193271 -0.85386183 25.21802922 2.59442565 37 11 C36.62488281 11.42410156 36.24976563 11.84820312 35.86328125 12.28515625 C32.30335421 16.36517338 29.08682003 20.5513476 26 25 C23.55907355 24.56412028 22.13208417 24.10527221 20.171875 22.54296875 C17.31292257 20.51187844 14.66845421 20.03037538 11.25 19.3125 C9.1875 18.879375 7.125 18.44625 5 18 C5 12.39 5 6.78 5 1 C3.35 1 1.7 1 0 1 C0 0.67 0 0.34 0 0 Z " fill="#3C6795" transform="translate(145,95)"/>
<path d="M0 0 C5.47932789 1.54545146 10.11429181 4.15543212 15 7 C14.45276317 10.37462715 13.9451 12.08235 12 15 C11.34 15 10.68 15 10 15 C9.690625 15.8353125 9.690625 15.8353125 9.375 16.6875 C6.1913806 22.04176899 -0.41824834 26.34471328 -6 29 C-7.32 29 -8.64 29 -10 29 C-10.83739781 26.8765984 -11.66980283 24.7512272 -12.5 22.625 C-12.9640625 21.44164062 -13.428125 20.25828125 -13.90625 19.0390625 C-15 16 -15 16 -15 14 C-16.65 14 -18.3 14 -20 14 C-19.44054687 13.72671875 -18.88109375 13.4534375 -18.3046875 13.171875 C-11.29716309 9.60872699 -5.29317479 5.85035109 0 0 Z " fill="#27568A" transform="translate(177,158)"/>
<path d="M0 0 C1.6875 1.828125 1.6875 1.828125 3 4.25 C5.54519461 8.52565761 7.66069126 10.62371188 12 13 C11.01 13.495 11.01 13.495 10 14 C9.78537109 14.85851562 9.78537109 14.85851562 9.56640625 15.734375 C8.84617061 18.61531755 7.4965206 20.72903052 5.9375 23.25 C5.38964844 24.14203125 4.84179688 25.0340625 4.27734375 25.953125 C3.85582031 26.62859375 3.43429688 27.3040625 3 28 C-2.92857529 27.15892185 -6.01328199 24.31016872 -10 20 C-17 10.63584906 -17 10.63584906 -17 5 C-15.29870914 4.15238178 -13.58856916 3.3225132 -11.875 2.5 C-10.92367187 2.0359375 -9.97234375 1.571875 -8.9921875 1.09375 C-5.68277001 -0.11595874 -3.48890608 -0.52188623 0 0 Z " fill="#2A598B" transform="translate(124,155)"/>
<path d="M0 0 C0 7.26 0 14.52 0 22 C-4.62 22.66 -9.24 23.32 -14 24 C-17.31606359 17.13917878 -19.34048069 10.43012053 -21 3 C-19.57002103 2.47887968 -18.13024594 1.98465493 -16.6875 1.5 C-15.88699219 1.2215625 -15.08648437 0.943125 -14.26171875 0.65625 C-11 0 -11 0 0 0 Z " fill="#7C98B7" transform="translate(150,73)"/>
<path d="M0 0 C2.79263303 6.43519784 3.56210082 11.9936132 4 19 C-2.6 19.66 -9.2 20.32 -16 21 C-16 25.29 -16 29.58 -16 34 C-16.33 34 -16.66 34 -17 34 C-17.04898438 32.90300781 -17.09796875 31.80601562 -17.1484375 30.67578125 C-17.22350591 29.22133075 -17.29905197 27.76690484 -17.375 26.3125 C-17.4059375 25.59126953 -17.436875 24.87003906 -17.46875 24.12695312 C-17.69633379 19.97354899 -18.33886882 16.85571505 -20 13 C-20 11.68 -20 10.36 -20 9 C-20.66 9 -21.32 9 -22 9 C-21 7 -21 7 -18.625 6.1875 C-16.830625 5.5996875 -16.830625 5.5996875 -15 5 C-12.17843898 3.7074641 -9.37879401 2.37683855 -6.5859375 1.0234375 C-4 0 -4 0 0 0 Z " fill="#567AA3" transform="translate(215,114)"/>
<path d="M0 0 C0.99 0 1.98 0 3 0 C3.350625 0.969375 3.70125 1.93875 4.0625 2.9375 C5.75003667 6.39434602 5.75003667 6.39434602 9.6875 6.875 C10.780625 6.91625 11.87375 6.9575 13 7 C12.67 8.32 12.34 9.64 12 11 C10.68 11 9.36 11 8 11 C8.226875 11.721875 8.45375 12.44375 8.6875 13.1875 C9.20485812 17.84372308 6.57499227 20.26072423 3.8125 23.8125 C3.214375 24.534375 2.61625 25.25625 2 26 C-1.29680965 25.34215037 -3.84117922 24.10579427 -6.75 22.4375 C-7.54921875 21.98246094 -8.3484375 21.52742188 -9.171875 21.05859375 C-9.77515625 20.70925781 -10.3784375 20.35992187 -11 20 C-9.80100302 16.9168649 -8.52299523 13.93720508 -7 11 C-5.68 11.66 -4.36 12.32 -3 13 C-3 13.66 -3 14.32 -3 15 C-1.68 15.33 -0.36 15.66 1 16 C0.67 17.32 0.34 18.64 0 20 C1.65 18.68 3.3 17.36 5 16 C4.34 14.35 3.68 12.7 3 11 C0.69 11 -1.62 11 -4 11 C-4 9.68 -4 8.36 -4 7 C-3.01 6.34 -2.02 5.68 -1 5 C-0.27034634 2.43717258 -0.27034634 2.43717258 0 0 Z " fill="#456C9A" transform="translate(38,65)"/>
<path d="M0 0 C1.98 5.28 3.96 10.56 6 16 C-1.875 19.375 -1.875 19.375 -6.05859375 19.29296875 C-6.93837891 19.28330078 -7.81816406 19.27363281 -8.72460938 19.26367188 C-9.61986328 19.23853516 -10.51511719 19.21339844 -11.4375 19.1875 C-12.82098633 19.16719727 -12.82098633 19.16719727 -14.23242188 19.14648438 C-16.48890383 19.11140953 -18.74413226 19.06226387 -21 19 C-21 18.67 -21 18.34 -21 18 C-17.7 17.67 -14.4 17.34 -11 17 C-11 11.72 -11 6.44 -11 1 C-7 0 -7 0 0 0 Z " fill="#426B98" transform="translate(162,172)"/>
<path d="M0 0 C2.1462026 0.14029419 4.29196218 0.28738164 6.4375 0.4375 C7.63246094 0.51871094 8.82742187 0.59992188 10.05859375 0.68359375 C13 1 13 1 14 2 C14.12663091 4.82416382 14.18520548 7.61294793 14.1875 10.4375 C14.19974609 11.22705078 14.21199219 12.01660156 14.22460938 12.83007812 C14.22987279 14.88807435 14.12206285 16.94562009 14 19 C11.669626 21.330374 10.81289219 21.38990587 7.625 21.75 C6.46871094 21.89695313 6.46871094 21.89695313 5.2890625 22.046875 C2.68385332 21.99352601 1.21946143 21.31748852 -1 20 C-1 3.75 -1 3.75 0 0 Z M2 11 C2.66 12.98 3.32 14.96 4 17 C5.65 17 7.3 17 9 17 C9.33 15.02 9.66 13.04 10 11 C7.36 11 4.72 11 2 11 Z " fill="#5A7DA5" transform="translate(14,128)"/>
<path d="M0 0 C0.33 0 0.66 0 1 0 C1.28875 0.886875 1.5775 1.77375 1.875 2.6875 C2.83178944 5.50471335 3.88268773 8.24427605 5 11 C2.58797799 12.65301509 0.17084663 14.29749946 -2.25 15.9375 C-2.93191406 16.40607422 -3.61382812 16.87464844 -4.31640625 17.35742188 C-4.98027344 17.80537109 -5.64414063 18.25332031 -6.328125 18.71484375 C-6.9355957 19.12855225 -7.54306641 19.54226074 -8.16894531 19.96850586 C-10.10148624 21.05717058 -11.83410258 21.56305737 -14 22 C-14.84114171 20.56705502 -15.67265687 19.12845595 -16.5 17.6875 C-16.9640625 16.88699219 -17.428125 16.08648437 -17.90625 15.26171875 C-19 13 -19 13 -19 10 C-17.79601562 9.61328125 -16.59203125 9.2265625 -15.3515625 8.828125 C-13.77578106 8.30286452 -12.20027419 7.77677979 -10.625 7.25 C-9.43390625 6.87101563 -9.43390625 6.87101563 -8.21875 6.484375 C-7.45820312 6.2265625 -6.69765625 5.96875 -5.9140625 5.703125 C-5.2123291 5.47270508 -4.5105957 5.24228516 -3.78759766 5.00488281 C-1.50630494 3.72247352 -0.95309589 2.38920869 0 0 Z " fill="#567AA3" transform="translate(105,158)"/>
<path d="M0 0 C2.9375 0.375 2.9375 0.375 4.9375 2.375 C5.29799118 5.07286946 5.54066276 7.66561602 5.6875 10.375 C5.77064453 11.48101562 5.77064453 11.48101562 5.85546875 12.609375 C5.97100452 14.52796893 5.96235227 16.45309117 5.9375 18.375 C3.31298383 20.99951617 1.4497172 20.9582868 -2.1875 21.5 C-3.28320312 21.66757813 -4.37890625 21.83515625 -5.5078125 22.0078125 C-6.35085937 22.12898438 -7.19390625 22.25015625 -8.0625 22.375 C-10.1875 15.75 -10.1875 15.75 -9.0625 12.375 C-8.0725 12.375 -7.0825 12.375 -6.0625 12.375 C-5.7325 13.365 -5.4025 14.355 -5.0625 15.375 C-4.7325 14.385 -4.4025 13.395 -4.0625 12.375 C-2.7425 12.375 -1.4225 12.375 -0.0625 12.375 C-0.0625 13.695 -0.0625 15.015 -0.0625 16.375 C0.5975 16.375 1.2575 16.375 1.9375 16.375 C1.6075 12.745 1.2775 9.115 0.9375 5.375 C0.2775 5.375 -0.3825 5.375 -1.0625 5.375 C-1.206875 6.179375 -1.35125 6.98375 -1.5 7.8125 C-2.0625 10.375 -2.0625 10.375 -3.0625 11.375 C-5.5 11.5625 -5.5 11.5625 -8.0625 11.375 C-10.0625 9.375 -10.0625 9.375 -10.2578125 7.4296875 C-10.19270833 5.41145833 -10.12760417 3.39322917 -10.0625 1.375 C-9.0725 1.375 -8.0825 1.375 -7.0625 1.375 C-6.7325 2.365 -6.4025 3.355 -6.0625 4.375 C-5.69125 3.715 -5.32 3.055 -4.9375 2.375 C-3.0625 0.375 -3.0625 0.375 0 0 Z " fill="#89A2BF" transform="translate(23.0625,149.625)"/>
<path d="M0 0 C1.98747188 0.22831047 3.96643893 0.53281817 5.9375 0.875 C7.01902344 1.05804688 8.10054687 1.24109375 9.21484375 1.4296875 C12 2 12 2 14 3 C14 4.32 14 5.64 14 7 C12.68 7 11.36 7 10 7 C10.391875 7.61875 10.78375 8.2375 11.1875 8.875 C12.41575382 13.59905317 10.85050824 17.56975781 9 22 C7 24 7 24 4.7578125 24.046875 C3.45457031 23.89992188 3.45457031 23.89992188 2.125 23.75 C1.26132812 23.66234375 0.39765625 23.5746875 -0.4921875 23.484375 C-2.98190102 23.00349575 -4.805286 22.2453726 -7 21 C-6.67 19.68 -6.34 18.36 -6 17 C-1.78121808 16.80377759 1.17010894 17.19769832 5 19 C5.66 17.02 6.32 15.04 7 13 C4.03 11.02 1.06 9.04 -2 7 C-1.125 1.125 -1.125 1.125 0 0 Z " fill="#466D9A" transform="translate(23,94)"/>
<path d="M0 0 C2.64 1.65 5.28 3.3 8 5 C7.01 5.495 7.01 5.495 6 6 C5.3249535 7.66329025 4.66038008 9.33083243 4 11 C2.65675583 13.30077766 1.29545883 15.56134882 -0.125 17.8125 C-0.49753906 18.40998047 -0.87007812 19.00746094 -1.25390625 19.62304688 C-2.1657048 21.08426251 -3.08235976 22.54244585 -4 24 C-7.55225704 22.28564986 -10.74021634 20.22257977 -14 18 C-12.32538115 14.0798695 -9.71110116 10.98782939 -7 7.75 C-6.54882812 7.19570312 -6.09765625 6.64140625 -5.6328125 6.0703125 C-4.46926971 4.67268418 -3.23905262 3.33114437 -2 2 C-1.34 2 -0.68 2 0 2 C0 1.34 0 0.68 0 0 Z " fill="#577AA3" transform="translate(119,179)"/>
<path d="M0 0 C0.51046875 0.57234375 1.0209375 1.1446875 1.546875 1.734375 C4.53453636 4.49368007 7.70148082 6.30264192 11.25 8.25 C11.8996875 8.61351562 12.549375 8.97703125 13.21875 9.3515625 C14.80918426 10.24033459 16.40414448 11.12099936 18 12 C17.29795092 16.39704421 15.96828429 18.64871128 13 22 C8.70938218 20.56459331 5.8113019 18.4156501 2.375 15.5 C-0.37251375 13.18155004 -3.00745988 10.99502675 -6 9 C-5.34 9 -4.68 9 -4 9 C-3.71125 8.2575 -3.4225 7.515 -3.125 6.75 C-2.17697356 4.43260203 -1.15154089 2.22082885 0 0 Z " fill="#567AA3" transform="translate(193,164)"/>
<path d="M0 0 C1.32 0.33 2.64 0.66 4 1 C4 1.66 4 2.32 4 3 C4.99 3 5.98 3 7 3 C7.33 3.66 7.66 4.32 8 5 C8.99 5.66 9.98 6.32 11 7 C10.01 7.66 9.02 8.32 8 9 C6.94617352 10.13695275 5.92644563 11.30618328 4.9375 12.5 C3.33892985 14.41991122 1.76869276 16.23130724 0 18 C-3.97689776 17.91162449 -5.68160711 17.26773948 -8.75 14.6875 C-11 12 -11 12 -13 8 C-10.69 6.02 -8.38 4.04 -6 2 C-5.34 3.32 -4.68 4.64 -4 6 C-4.99 6.99 -5.98 7.98 -7 9 C-5.35 8.01 -3.7 7.02 -2 6 C-1.67 7.65 -1.34 9.3 -1 11 C-1.66 11 -2.32 11 -3 11 C-3 11.66 -3 12.32 -3 13 C-1.68 11.68 -0.36 10.36 1 9 C-0.32 7.02 -1.64 5.04 -3 3 C-2.01 3 -1.02 3 0 3 C0 2.01 0 1.02 0 0 Z " fill="#4E749F" transform="translate(61,45)"/>
<path d="M0 0 C0.99 0 1.98 0 3 0 C3.86846831 1.74294678 4.71930627 3.49468663 5.5625 5.25 C6.27599609 6.71179688 6.27599609 6.71179688 7.00390625 8.203125 C8.03510273 11.09856297 8.11346788 12.19966161 7 15 C5.68 15.33 4.36 15.66 3 16 C1.68 14.02 0.36 12.04 -1 10 C-2.98 10.99 -2.98 10.99 -5 12 C-5 11.34 -5 10.68 -5 10 C-5.66 10 -6.32 10 -7 10 C-7.33 8.02 -7.66 6.04 -8 4 C-6.35 3.34 -4.7 2.68 -3 2 C-2.67 2.33 -2.34 2.66 -2 3 C-1.34 2.01 -0.68 1.02 0 0 Z " fill="#3F6897" transform="translate(102,16)"/>
<path d="M0 0 C1.16796875 2.3984375 1.16796875 2.3984375 2.1875 5.375 C2.53167969 6.35210938 2.87585938 7.32921875 3.23046875 8.3359375 C4 11 4 11 4 14 C2.35 13.67 0.7 13.34 -1 13 C-1 12.34 -1 11.68 -1 11 C-1.66 11 -2.32 11 -3 11 C-3 12.32 -3 13.64 -3 15 C-4.65 15 -6.3 15 -8 15 C-8.02693575 12.87506859 -8.04636628 10.75004088 -8.0625 8.625 C-8.07410156 7.44164062 -8.08570312 6.25828125 -8.09765625 5.0390625 C-8 2 -8 2 -7 0 C-4.0262656 -1.09036928 -3.11592499 -1.03864166 0 0 Z " fill="#50749F" transform="translate(128,11)"/>
<path d="M0 0 C0.33 1.32 0.66 2.64 1 4 C-8.9974337 11.66552609 -8.9974337 11.66552609 -12 13 C-14.25 12.5625 -14.25 12.5625 -16 11 C-16.75 7.875 -16.75 7.875 -17 5 C-15.29870914 4.15238178 -13.58856916 3.3225132 -11.875 2.5 C-10.92367187 2.0359375 -9.97234375 1.571875 -8.9921875 1.09375 C-5.78803369 -0.07748116 -3.38282687 -0.20076124 0 0 Z " fill="#1D4F85" transform="translate(124,155)"/>
<path d="M0 0 C0.763125 0.20625 1.52625 0.4125 2.3125 0.625 C2.3125 1.945 2.3125 3.265 2.3125 4.625 C3.3025 4.625 4.2925 4.625 5.3125 4.625 C5.6425 3.635 5.9725 2.645 6.3125 1.625 C10.3125 7.25 10.3125 7.25 10.3125 10.625 C9.69375 10.74875 9.075 10.8725 8.4375 11 C6.12129168 11.49697356 6.12129168 11.49697356 4.3125 13.625 C3.3225 12.635 2.3325 11.645 1.3125 10.625 C1.3125 11.285 1.3125 11.945 1.3125 12.625 C-1.31184747 12.26302104 -2.50763689 11.79843943 -4.4375 9.9375 C-6.05444375 6.94615406 -6.12466184 4.97657411 -5.6875 1.625 C-2.6875 -0.375 -2.6875 -0.375 0 0 Z " fill="#5C7FA6" transform="translate(74.6875,32.375)"/>
<path d="M0 0 C4 1 4 1 6 3 C5.34 3 4.68 3 4 3 C3.89816406 3.55171875 3.79632813 4.1034375 3.69140625 4.671875 C2.84495404 7.52207567 1.49979966 9.72372821 -0.0625 12.25 C-0.61035156 13.14203125 -1.15820312 14.0340625 -1.72265625 14.953125 C-2.35494141 15.96632812 -2.35494141 15.96632812 -3 17 C-5.375 16.75 -5.375 16.75 -8 16 C-8.66 14.68 -9.32 13.36 -10 12 C-6.7 8.04 -3.4 4.08 0 0 Z " fill="#1D4F85" transform="translate(130,166)"/>
<path d="M0 0 C3.37503669 1.1858237 5.64722731 2.27573689 8 5 C7.34 6.98 6.68 8.96 6 11 C6.66 11 7.32 11 8 11 C7.67 12.65 7.34 14.3 7 16 C2.01987239 14.49087042 -1.24259942 11.44338151 -5 8 C-3.8141763 4.62496331 -2.72426311 2.35277269 0 0 Z " fill="#366091" transform="translate(46,56)"/>
<path d="M0 0 C1.32 0 2.64 0 4 0 C3.979375 0.804375 3.95875 1.60875 3.9375 2.4375 C3.70366379 4.93354885 3.70366379 4.93354885 5 6 C5 4.68 5 3.36 5 2 C6.32 2 7.64 2 9 2 C9 3.65 9 5.3 9 7 C9.66 7 10.32 7 11 7 C11.33 5.35 11.66 3.7 12 2 C12.99 2 13.98 2 15 2 C15.25 7.625 15.25 7.625 13 11 C7.76314488 11.43640459 3.93055579 10.97222232 -1 9 C-0.67 6.03 -0.34 3.06 0 0 Z " fill="#376091" transform="translate(15,117)"/>
<path d="M0 0 C2.875 0.3125 2.875 0.3125 3.875 1.3125 C4.01615161 3.98308851 3.91747107 6.63682238 3.875 9.3125 C3.215 9.3125 2.555 9.3125 1.875 9.3125 C1.875 7.6625 1.875 6.0125 1.875 4.3125 C0.885 4.3125 -0.105 4.3125 -1.125 4.3125 C-1.063125 5.488125 -1.063125 5.488125 -1 6.6875 C-1.125 9.3125 -1.125 9.3125 -3.125 11.3125 C-5.625 11.5625 -5.625 11.5625 -8.125 11.3125 C-10.125 9.3125 -10.125 9.3125 -10.3203125 7.3671875 C-10.25520833 5.34895833 -10.19010417 3.33072917 -10.125 1.3125 C-9.135 1.3125 -8.145 1.3125 -7.125 1.3125 C-6.795 2.3025 -6.465 3.2925 -6.125 4.3125 C-5.75375 3.6525 -5.3825 2.9925 -5 2.3125 C-3.125 0.3125 -3.125 0.3125 0 0 Z " fill="#486F9C" transform="translate(23.125,149.6875)"/>
<path d="M0 0 C0.99 0 1.98 0 3 0 C3.350625 0.969375 3.70125 1.93875 4.0625 2.9375 C5.75003667 6.39434602 5.75003667 6.39434602 9.6875 6.875 C10.780625 6.91625 11.87375 6.9575 13 7 C13 7.99 13 8.98 13 10 C11.02 10 9.04 10 7 10 C7 10.66 7 11.32 7 12 C5.68 12.33 4.36 12.66 3 13 C3 12.34 3 11.68 3 11 C0.69 11 -1.62 11 -4 11 C-4 9.68 -4 8.36 -4 7 C-3.01 6.34 -2.02 5.68 -1 5 C-0.27034634 2.43717258 -0.27034634 2.43717258 0 0 Z " fill="#325D8F" transform="translate(38,65)"/>
<path d="M0 0 C1.65 0 3.3 0 5 0 C6.28317892 3.84953676 6.06643637 6.94738135 6 11 C7.98 10.67 9.96 10.34 12 10 C12 11.32 12 12.64 12 14 C8.98675805 15.50662097 6.31713623 15.17770373 3 15 C0.33684806 12.33684806 0.05573507 10.34655932 -0.09765625 6.640625 C-0.08605469 5.85171875 -0.07445312 5.0628125 -0.0625 4.25 C-0.05347656 3.45078125 -0.04445312 2.6515625 -0.03515625 1.828125 C-0.02355469 1.22484375 -0.01195312 0.6215625 0 0 Z " fill="#5479A2" transform="translate(131,9)"/>
<path d="M0 0 C0.75 3.125 0.75 3.125 1 6 C0.01 6.495 0.01 6.495 -1 7 C-0.67 8.32 -0.34 9.64 0 11 C-1.98 11.33 -3.96 11.66 -6 12 C-5.67 11.01 -5.34 10.02 -5 9 C-5.99 8.67 -6.98 8.34 -8 8 C-8 9.65 -8 11.3 -8 13 C-9.73662334 9.77484237 -10.8905928 6.48670834 -12 3 C-8.3473318 -1.0440255 -4.92192722 -3.90359745 0 0 Z M-4 2 C-5.32 2.99 -6.64 3.98 -8 5 C-7.67 5.66 -7.34 6.32 -7 7 C-5.35 6.67 -3.7 6.34 -2 6 C-2.66 4.68 -3.32 3.36 -4 2 Z " fill="#F19396" transform="translate(34,184)"/>
<path d="M0 0 C-0.185625 0.99 -0.37125 1.98 -0.5625 3 C-1.17661683 7.17087678 -0.65520905 10.85034269 0 15 C-1.32 15.33 -2.64 15.66 -4 16 C-5.31626692 12.38026598 -6 9.90432869 -6 6 C-7.32 6 -8.64 6 -10 6 C-9.67 4.35 -9.34 2.7 -9 1 C-2.25 -1.125 -2.25 -1.125 0 0 Z " fill="#5176A0" transform="translate(117,13)"/>
<path d="M0 0 C1.32 0.33 2.64 0.66 4 1 C4 1.66 4 2.32 4 3 C4.99 3 5.98 3 7 3 C7.33 3.66 7.66 4.32 8 5 C8.99 5.66 9.98 6.32 11 7 C10.01 7.66 9.02 8.32 8 9 C6.90431639 10.17832641 5.84257554 11.38890936 4.8125 12.625 C4.28269531 13.25664063 3.75289063 13.88828125 3.20703125 14.5390625 C2.80871094 15.02117188 2.41039062 15.50328125 2 16 C1.67 15.01 1.34 14.02 1 13 C0.34 12.67 -0.32 12.34 -1 12 C-0.34 11.01 0.32 10.02 1 9 C-0.32 7.02 -1.64 5.04 -3 3 C-2.01 3 -1.02 3 0 3 C0 2.01 0 1.02 0 0 Z " fill="#5C80A7" transform="translate(61,45)"/>
<path d="M0 0 C1.98747188 0.22831047 3.96643893 0.53281817 5.9375 0.875 C7.01902344 1.05804688 8.10054687 1.24109375 9.21484375 1.4296875 C12 2 12 2 14 3 C14 4.32 14 5.64 14 7 C12.68 7 11.36 7 10 7 C9.67 7.66 9.34 8.32 9 9 C9 8.01 9 7.02 9 6 C10.32 6 11.64 6 13 6 C13 5.34 13 4.68 13 4 C8.71 3.34 4.42 2.68 0 2 C0 2.66 0 3.32 0 4 C2.31 4.33 4.62 4.66 7 5 C7 5.66 7 6.32 7 7 C6.34 7 5.68 7 5 7 C5.66 8.65 6.32 10.3 7 12 C3.54074837 10.7508258 0.85306797 9.32472205 -2 7 C-1.125 1.125 -1.125 1.125 0 0 Z " fill="#7492B4" transform="translate(23,94)"/>
<path d="M0 0 C0.99 0 1.98 0 3 0 C3 1.98 3 3.96 3 6 C7.05085679 5.75368443 7.05085679 5.75368443 11 5 C12.5899433 3.07935207 12.5899433 3.07935207 13 1 C13 3.64 13 6.28 13 9 C11.58566794 9.2236337 10.16832382 9.42826476 8.75 9.625 C7.96109375 9.74101562 7.1721875 9.85703125 6.359375 9.9765625 C3.67847541 10.00319395 2.27305911 9.36592084 0 8 C0 5.36 0 2.72 0 0 Z " fill="#29558A" transform="translate(13,140)"/>
<path d="M0 0 C1.79244141 0.01740234 1.79244141 0.01740234 3.62109375 0.03515625 C5.41740234 0.04869141 5.41740234 0.04869141 7.25 0.0625 C8.17683594 0.07410156 9.10367187 0.08570313 10.05859375 0.09765625 C11.53691635 3.05430144 11.11892158 5.83995362 11.05859375 9.09765625 C10.06859375 9.59265625 10.06859375 9.59265625 9.05859375 10.09765625 C8.72859375 9.10765625 8.39859375 8.11765625 8.05859375 7.09765625 C7.72859375 7.42765625 7.39859375 7.75765625 7.05859375 8.09765625 C4.38800524 8.23880786 1.73427137 8.14012732 -0.94140625 8.09765625 C-0.94140625 6.11765625 -0.94140625 4.13765625 -0.94140625 2.09765625 C-1.93140625 1.76765625 -2.92140625 1.43765625 -3.94140625 1.09765625 C-2.94140625 0.09765625 -2.94140625 0.09765625 0 0 Z M-0.94140625 1.09765625 C-0.28140625 3.07765625 0.37859375 5.05765625 1.05859375 7.09765625 C2.70859375 7.09765625 4.35859375 7.09765625 6.05859375 7.09765625 C6.38859375 5.11765625 6.71859375 3.13765625 7.05859375 1.09765625 C4.41859375 1.09765625 1.77859375 1.09765625 -0.94140625 1.09765625 Z " fill="#9BB1C9" transform="translate(16.94140625,137.90234375)"/>
<path d="M0 0 C1.32 0 2.64 0 4 0 C4.875 2.0625 4.875 2.0625 5 5 C3.26080867 7.59005725 1.19602066 9.79124879 -1 12 C-1.99 11.34 -2.98 10.68 -4 10 C-4 9.34 -4 8.68 -4 8 C-4.66 7.34 -5.32 6.68 -6 6 C-4.33333333 6 -2.66666667 6 -1 6 C-1 4.68 -1 3.36 -1 2 C-0.67 1.34 -0.34 0.68 0 0 Z " fill="#ED7B7F" transform="translate(50,222)"/>
<path d="M0 0 C1.79206547 0.14084796 3.58364917 0.28783701 5.375 0.4375 C6.87160156 0.55931641 6.87160156 0.55931641 8.3984375 0.68359375 C11 1 11 1 13 2 C13 2.66 13 3.32 13 4 C11.68 4 10.36 4 9 4 C9.2784375 4.928125 9.2784375 4.928125 9.5625 5.875 C10 8 10 8 9 10 C7.68 9.34 6.36 8.68 5 8 C5 7.01 5 6.02 5 5 C5.66 5 6.32 5 7 5 C7 4.34 7 3.68 7 3 C4.69 2.67 2.38 2.34 0 2 C0 1.34 0 0.68 0 0 Z " fill="#0B3F7B" transform="translate(23,96)"/>
<path d="M0 0 C1.65 0 3.3 0 5 0 C3.68 0.33 2.36 0.66 1 1 C1.3403125 2.0828125 1.3403125 2.0828125 1.6875 3.1875 C2.08883261 6.79949347 1.10595709 8.11405881 -1 11 C-1.66 11.66 -2.32 12.32 -3 13 C-3.33 12.34 -3.66 11.68 -4 11 C-5.32 11.33 -6.64 11.66 -8 12 C-8 11.01 -8 10.02 -8 9 C-7.01 9 -6.02 9 -5 9 C-3.22954016 7.81299492 -3.22954016 7.81299492 -2 6 C-2 4.68 -2 3.36 -2 2 C-1.34 2 -0.68 2 0 2 C0 1.34 0 0.68 0 0 Z " fill="#5A7DA5" transform="translate(45,75)"/>
<path d="M0 0 C0.99 0 1.98 0 3 0 C3.350625 0.969375 3.70125 1.93875 4.0625 2.9375 C5.75003667 6.39434602 5.75003667 6.39434602 9.6875 6.875 C10.780625 6.91625 11.87375 6.9575 13 7 C12.67 7.99 12.34 8.98 12 10 C12 9.34 12 8.68 12 8 C10.906875 8.04125 9.81375 8.0825 8.6875 8.125 C5 8 5 8 2 6 C2 6.66 2 7.32 2 8 C0.35 7.67 -1.3 7.34 -3 7 C-2.34 6.34 -1.68 5.68 -1 5 C-0.35232207 2.42938689 -0.35232207 2.42938689 0 0 Z " fill="#6D8DB0" transform="translate(38,65)"/>
<path d="M0 0 C1.5 1.1875 1.5 1.1875 3 3 C3.1875 5.6875 3.1875 5.6875 3 8 C1.02 8.66 -0.96 9.32 -3 10 C-3 9.34 -3 8.68 -3 8 C-3.99 7.67 -4.98 7.34 -6 7 C-5.34 6.67 -4.68 6.34 -4 6 C-4 4.35 -4 2.7 -4 1 C-3.67 1.66 -3.34 2.32 -3 3 C-2.01 2.01 -1.02 1.02 0 0 Z " fill="#5176A0" transform="translate(100,25)"/>
<path d="M0 0 C0.66 0.33 1.32 0.66 2 1 C1.45463844 4.81753091 -0.19537375 6.45033977 -3 9 C-3.66 9.66 -4.32 10.32 -5 11 C-6.29024129 8.8748967 -7 7.44654501 -7 4.9375 C-5.4313363 1.89821408 -3.09518761 1.20017479 0 0 Z " fill="#496F9C" transform="translate(91,21)"/>
<path d="M0 0 C2.38564077 0.57584432 4.66682784 1.22227595 7 2 C7 2.66 7 3.32 7 4 C7.99 4 8.98 4 10 4 C9.67 5.65 9.34 7.3 9 9 C4.5937814 7.65365543 2.56922298 5.80625626 0 2 C0 1.34 0 0.68 0 0 Z " fill="#315D8F" transform="translate(44,63)"/>
<path d="M0 0 C-0.99 0.33 -1.98 0.66 -3 1 C-3 1.66 -3 2.32 -3 3 C-1.35 2.67 0.3 2.34 2 2 C2 2.66 2 3.32 2 4 C-3.41538462 7.07692308 -3.41538462 7.07692308 -6.375 6.6875 C-6.91125 6.460625 -7.4475 6.23375 -8 6 C-7.75 3.625 -7.75 3.625 -7 1 C-4.12732844 -1.10662581 -3.46720491 -1.15573497 0 0 Z " fill="#E74147" transform="translate(40,205)"/>
<path d="M0 0 C0.66 0 1.32 0 2 0 C2 1.65 2 3.3 2 5 C2.99 5 3.98 5 5 5 C5 3.35 5 1.7 5 0 C5.66 0 6.32 0 7 0 C7 1.32 7 2.64 7 4 C8.32 4 9.64 4 11 4 C11 4.66 11 5.32 11 6 C7.32589215 7.17571451 3.83070817 7.07366746 0 7 C0 4.69 0 2.38 0 0 Z " fill="#0A3C78" transform="translate(15,163)"/>
<path d="M0 0 C0.99 0.33 1.98 0.66 3 1 C3 4.3 3 7.6 3 11 C1.68 11 0.36 11 -1 11 C-1.02688151 9.35425434 -1.04634123 7.70838587 -1.0625 6.0625 C-1.07410156 5.14597656 -1.08570313 4.22945312 -1.09765625 3.28515625 C-1 1 -1 1 0 0 Z " fill="#6B89AC" transform="translate(156,140)"/>
<path d="M0 0 C2.475 0.495 2.475 0.495 5 1 C5 3.31 5 5.62 5 8 C3.35 8 1.7 8 0 8 C0 5.36 0 2.72 0 0 Z " fill="#A0B5CB" transform="translate(123,134)"/>
<path d="M0 0 C-1.3125 1.5 -1.3125 1.5 -3 3 C-3.99 3 -4.98 3 -6 3 C-6 3.66 -6 4.32 -6 5 C-3.08482708 3.92598892 -1.22189824 3.22189824 1 1 C1 1.99 1 2.98 1 4 C-1.27837542 6.27837542 -2.50812237 6.96646289 -5.75 7.1875 C-6.4925 7.125625 -7.235 7.06375 -8 7 C-8.3125 4.6875 -8.3125 4.6875 -8 2 C-3.92125984 -1.30708661 -3.92125984 -1.30708661 0 0 Z " fill="#E3282F" transform="translate(44,211)"/>
<path d="M0 0 C0.33 1.65 0.66 3.3 1 5 C-2.51187196 7.40814077 -4.72656908 8.36629408 -9 8 C-9 6.02 -9 4.04 -9 2 C-7.68 2.33 -6.36 2.66 -5 3 C-5.99 4.485 -5.99 4.485 -7 6 C-5.02 5.67 -3.04 5.34 -1 5 C-1 4.01 -1 3.02 -1 2 C-1.99 1.67 -2.98 1.34 -4 1 C-2 0 -2 0 0 0 Z " fill="#E3282F" transform="translate(35,190)"/>
<path d="M0 0 C1.67542976 0.28604898 3.34385343 0.61781233 5 1 C5 1.99 5 2.98 5 4 C5.639375 4.268125 6.27875 4.53625 6.9375 4.8125 C9 6 9 6 10 9 C8.68 8.67 7.36 8.34 6 8 C6 7.34 6 6.68 6 6 C5.01 6 4.02 6 3 6 C2.896875 5.360625 2.79375 4.72125 2.6875 4.0625 C2.460625 3.381875 2.23375 2.70125 2 2 C1.01 1.67 0.02 1.34 -1 1 C-0.67 0.67 -0.34 0.34 0 0 Z " fill="#0F407B" transform="translate(62,42)"/>
<path d="M0 0 C0.99 0 1.98 0 3 0 C3 1.98 3 3.96 3 6 C4.32 6.66 5.64 7.32 7 8 C5.0085944 8.38133299 3.00720923 8.71325582 1 9 C0 8 0 8 -0.09765625 6.15234375 C-0.06510417 4.1015625 -0.03255208 2.05078125 0 0 Z " fill="#396393" transform="translate(13,151)"/>
<path d="M0 0 C0.66 0 1.32 0 2 0 C2.66 2.97 3.32 5.94 4 9 C2.68 9.33 1.36 9.66 0 10 C-0.95024979 6.30458414 -0.95024979 3.69541586 0 0 Z " fill="#8BA4BF" transform="translate(171,135)"/>
<path d="M0 0 C2.475 0.495 2.475 0.495 5 1 C5 2.65 5 4.3 5 6 C3.35 6.33 1.7 6.66 0 7 C0 4.69 0 2.38 0 0 Z " fill="#6887AB" transform="translate(140,134)"/>
<path d="M0 0 C1.65 0.33 3.3 0.66 5 1 C5.33 1.99 5.66 2.98 6 4 C2.25 7 2.25 7 0 7 C-1.125 2.25 -1.125 2.25 0 0 Z " fill="#083E7A" transform="translate(97,21)"/>
<path d="M0 0 C2.375 1.375 2.375 1.375 3.1875 4 C3.249375 4.78375 3.31125 5.5675 3.375 6.375 C2.715 6.045 2.055 5.715 1.375 5.375 C1.375 4.715 1.375 4.055 1.375 3.375 C-0.275 3.045 -1.925 2.715 -3.625 2.375 C-3.955 4.025 -4.285 5.675 -4.625 7.375 C-6.625 4.375 -6.625 4.375 -6.4375 2.25 C-6.169375 1.63125 -5.90125 1.0125 -5.625 0.375 C-2.625 -0.625 -2.625 -0.625 0 0 Z " fill="#7A96B7" transform="translate(100.625,18.625)"/>
<path d="M0 0 C1.32 0.66 2.64 1.32 4 2 C3.34 3.65 2.68 5.3 2 7 C0.35 7 -1.3 7 -3 7 C-1.125 2.25 -1.125 2.25 0 0 Z " fill="#7693B4" transform="translate(31,76)"/>
<path d="M0 0 C6.625 -0.25 6.625 -0.25 10 2 C9 3 9 3 6.93359375 3.09765625 C6.10988281 3.08605469 5.28617188 3.07445312 4.4375 3.0625 C3.61121094 3.05347656 2.78492188 3.04445312 1.93359375 3.03515625 C1.29550781 3.02355469 0.65742188 3.01195312 0 3 C0 2.01 0 1.02 0 0 Z " fill="#053977" transform="translate(14,135)"/>
<path d="M0 0 C-2.64738916 1.4606285 -3.89448334 2 -7 2 C-6.67 3.32 -6.34 4.64 -6 6 C-6.99 6 -7.98 6 -9 6 C-10.125 2.25 -10.125 2.25 -9 0 C-5.65506316 -0.99444068 -3.31044803 -1.10348268 0 0 Z " fill="#E64148" transform="translate(32,185)"/>
<path d="M0 0 C1.32 0 2.64 0 4 0 C4 1.65 4 3.3 4 5 C3.67 3.68 3.34 2.36 3 1 C2.34 1 1.68 1 1 1 C1.32960216 6.01535052 1.32960216 6.01535052 4 10 C2.35 9.67 0.7 9.34 -1 9 C-0.67 6.03 -0.34 3.06 0 0 Z " fill="#A3B7CD" transform="translate(15,117)"/>
<path d="M0 0 C3 1 3 1 5 3 C4.01 3 3.02 3 2 3 C2 3.99 2 4.98 2 6 C0.68 6 -0.64 6 -2 6 C-1.125 1.125 -1.125 1.125 0 0 Z " fill="#3F6897" transform="translate(59,42)"/>
<path d="M0 0 C0.66 0 1.32 0 2 0 C2.12375 0.969375 2.2475 1.93875 2.375 2.9375 C2.684375 4.4534375 2.684375 4.4534375 3 6 C3.66 6.33 4.32 6.66 5 7 C4.67 7.99 4.34 8.98 4 10 C4 9.34 4 8.68 4 8 C2.68 8.33 1.36 8.66 0 9 C0 6.03 0 3.06 0 0 Z " fill="#5B80A7" transform="translate(123,14)"/>
<path d="M0 0 C-0.99 0.495 -0.99 0.495 -2 1 C-2 2.65 -2 4.3 -2 6 C-2.66 5.67 -3.32 5.34 -4 5 C-4 4.34 -4 3.68 -4 3 C-5.32 3 -6.64 3 -8 3 C-8 2.34 -8 1.68 -8 1 C-4.93251126 -0.86240388 -3.40254489 -1.2151946 0 0 Z " fill="#E42A32" transform="translate(52,225)"/>
<path d="M0 0 C0.6875 2.0625 0.6875 2.0625 1 4 C0.34 4 -0.32 4 -1 4 C-1 3.01 -1 2.02 -1 1 C-1.99 1 -2.98 1 -4 1 C-4 1.66 -4 2.32 -4 3 C-5.65 3.33 -7.3 3.66 -9 4 C-8 1 -8 1 -5.625 -0.25 C-3 -1 -3 -1 0 0 Z " fill="#E32129" transform="translate(38,198)"/>
<path d="M0 0 C0.33 0 0.66 0 1 0 C1 2.64 1 5.28 1 8 C-1.375 8.1875 -1.375 8.1875 -4 8 C-4.66 7.01 -5.32 6.02 -6 5 C-4.68 5 -3.36 5 -2 5 C-1.34 3.35 -0.68 1.7 0 0 Z " fill="#476F9C" transform="translate(27,130)"/>
<path d="M0 0 C1.32 0.33 2.64 0.66 4 1 C3.34 2.65 2.68 4.3 2 6 C1.34 5.34 0.68 4.68 0 4 C-2.10820797 4.3185177 -2.10820797 4.3185177 -4 5 C-4 4.01 -4 3.02 -4 2 C-3.01 2 -2.02 2 -1 2 C-0.67 1.34 -0.34 0.68 0 0 Z " fill="#839EBC" transform="translate(41,82)"/>
<path d="M0 0 C-0.33 1.32 -0.66 2.64 -1 4 C-1.66 4 -2.32 4 -3 4 C-3 4.66 -3 5.32 -3 6 C-3.66 6 -4.32 6 -5 6 C-5.33 4.35 -5.66 2.7 -6 1 C-4 0 -4 0 0 0 Z " fill="#6F8EB1" transform="translate(95,27)"/>
<path d="M0 0 C0.99 0 1.98 0 3 0 C3.125 2.875 3.125 2.875 3 6 C2.34 6.66 1.68 7.32 1 8 C-1 5 -1 5 -0.625 2.3125 C-0.41875 1.549375 -0.2125 0.78625 0 0 Z " fill="#7B98B8" transform="translate(27,119)"/>
<path d="M0 0 C0.66 0.33 1.32 0.66 2 1 C1.01 4.96 0.02 8.92 -1 13 C-1.95904856 9.16380575 -1.91892116 7.67568464 -1 4 C-1.66 3.67 -2.32 3.34 -3 3 C-2.34 3 -1.68 3 -1 3 C-0.67 2.01 -0.34 1.02 0 0 Z " fill="#8AA3BF" transform="translate(33,103)"/>
<path d="M0 0 C0.66 0.33 1.32 0.66 2 1 C1.34 2.98 0.68 4.96 0 7 C-0.33 6.34 -0.66 5.68 -1 5 C-3.02463255 4.34786708 -3.02463255 4.34786708 -5 4 C-3.35 2.68 -1.7 1.36 0 0 Z " fill="#6A8AAE" transform="translate(52,60)"/>
<path d="M0 0 C2 2 2 2 2 5 C0.68 5.33 -0.64 5.66 -2 6 C-2 5.34 -2 4.68 -2 4 C-2.99 4 -3.98 4 -5 4 C-4.67 3.01 -4.34 2.02 -4 1 C-4 1.66 -4 2.32 -4 3 C-2.68 2.01 -1.36 1.02 0 0 Z " fill="#7290B2" transform="translate(58,51)"/>
<path d="M0 0 C0.66 0.66 1.32 1.32 2 2 C1.34 2 0.68 2 0 2 C0.33 3.65 0.66 5.3 1 7 C-1.31 6.67 -3.62 6.34 -6 6 C-5.67 5.34 -5.34 4.68 -5 4 C-4.01 4 -3.02 4 -2 4 C-1.34 2.68 -0.68 1.36 0 0 Z " fill="#95ADC6" transform="translate(67,36)"/>
<path d="M0 0 C0.66 0.33 1.32 0.66 2 1 C1.75 2.875 1.75 2.875 1 5 C-1.0625 6.25 -1.0625 6.25 -3 7 C-2.67 5.68 -2.34 4.36 -2 3 C-2.66 2.67 -3.32 2.34 -4 2 C-2.125 0.9375 -2.125 0.9375 0 0 Z " fill="#7A96B6" transform="translate(91,21)"/>
<path d="M0 0 C2.89932357 2.39509338 3.50168276 4.31245243 4 8 C2.68 7.67 1.36 7.34 0 7 C0 4.69 0 2.38 0 0 Z " fill="#0F417C" transform="translate(80,34)"/>
<path d="M0 0 C1.98 0.495 1.98 0.495 4 1 C3.67 2.32 3.34 3.64 3 5 C1.68 5 0.36 5 -1 5 C-0.67 3.35 -0.34 1.7 0 0 Z " fill="#6E8CB0" transform="translate(108,14)"/>
<path d="M0 0 C0.8971875 0.309375 0.8971875 0.309375 1.8125 0.625 C0.4925 0.955 -0.8275 1.285 -2.1875 1.625 C-2.1875 2.285 -2.1875 2.945 -2.1875 3.625 C-3.8375 4.285 -5.4875 4.945 -7.1875 5.625 C-5.69046729 2.17030914 -4.27938051 -0.73360809 0 0 Z " fill="#E32229" transform="translate(47.1875,216.375)"/>
<path d="M0 0 C1.32 1.65 2.64 3.3 4 5 C3.01 5 2.02 5 1 5 C0.34 3.68 -0.32 2.36 -1 1 C-0.67 0.67 -0.34 0.34 0 0 Z M3 0 C4.98 0.495 4.98 0.495 7 1 C5.35 1.33 3.7 1.66 2 2 C2.33 1.34 2.66 0.68 3 0 Z " fill="#7E9AB9" transform="translate(42,61)"/>
<path d="M0 0 C1.32 0.99 2.64 1.98 4 3 C2.35 4.32 0.7 5.64 -1 7 C-1 6.01 -1 5.02 -1 4 C-1.66 3.67 -2.32 3.34 -3 3 C-2.01 2.01 -1.02 1.02 0 0 Z " fill="#94ABC5" transform="translate(63,54)"/>
<path d="M0 0 C1.9375 0.3125 1.9375 0.3125 4 1 C4.33 1.99 4.66 2.98 5 4 C3.68 4.33 2.36 4.66 1 5 C0.67 3.35 0.34 1.7 0 0 Z " fill="#416997" transform="translate(64,51)"/>
<path d="M0 0 C0.99 0 1.98 0 3 0 C3 1.98 3 3.96 3 6 C2.01 6 1.02 6 0 6 C0 4.02 0 2.04 0 0 Z " fill="#0E447D" transform="translate(124,135)"/>
<path d="M0 0 C0.33 0.99 0.66 1.98 1 3 C-0.98 3.66 -2.96 4.32 -5 5 C-5 4.34 -5 3.68 -5 3 C-5.99 2.67 -6.98 2.34 -8 2 C-4.71303767 1.20046862 -3.28976808 0.90341064 0 2 C0 1.34 0 0.68 0 0 Z " fill="#9AB0C8" transform="translate(102,30)"/>
<path d="M0 0 C2.97 0.33 5.94 0.66 9 1 C8.34 1.66 7.68 2.32 7 3 C3.375 2.625 3.375 2.625 0 2 C0 1.34 0 0.68 0 0 Z " fill="#023574" transform="translate(23,96)"/>
</svg>
